Coordinates
version=1
nRows=38
nColumns=12
inDegrees=yes

Units are S.I. units (second, meters, Newtons, ...)
Angles are in degrees

endheader
time	SC_y	SC_z	SC_x	AC_y	AC_z	AC_x	GH_y	GH_z	GH_yy	EL_x	PS_y
       0.0              -18.41          8.741          30.03          46.88          2.396          13.75         -124.5          47.87         -85.14          121.0          121.0
   0.02251              -18.41           8.74          30.03          46.88          2.396          13.75         -124.5          47.86         -85.11          121.0          121.0
   0.04502              -18.41          8.739          30.04          46.88          2.396          13.75         -124.4          47.85         -85.08          121.0          121.0
   0.06753              -18.42          8.738          30.04          46.88          2.396          13.74         -124.4          47.84         -85.05          121.0          121.0
   0.09004              -18.42          8.736          30.04          46.88          2.396          13.73         -124.4          47.83         -85.02          121.0          120.9
    0.1125              -18.42          8.735          30.04          46.88          2.396          13.73         -124.4          47.81         -84.98          121.0          120.9
    0.1351              -18.43          8.734          30.04          46.88          2.396          13.72         -124.4           47.8         -84.94          121.0          120.9
    0.1576              -18.43          8.732          30.04          46.88          2.396          13.72         -124.3          47.79          -84.9          121.0          120.9
    0.1801              -18.44          8.731          30.04          46.88          2.396          13.71         -124.3          47.77         -84.86          121.0          120.8
    0.2026              -18.44          8.729          30.04          46.88          2.396           13.7         -124.3          47.75         -84.81          121.0          120.8
    0.2251              -18.45          8.728          30.04          46.88          2.396          13.69         -124.3          47.74         -84.76          121.0          120.8
    0.2476              -18.45          8.726          30.05          46.88          2.396          13.68         -124.3          47.72          -84.7          121.0          120.7
    0.2701              -18.46          8.724          30.05          46.87          2.396          13.67         -124.2           47.7         -84.64          121.0          120.7
    0.2926              -18.47          8.722          30.05          46.87          2.397          13.66         -124.2          47.68         -84.58          121.0          120.7
    0.3151              -18.47          8.719          30.05          46.87          2.397          13.65         -124.2          47.65         -84.51          120.9          120.6
    0.3376              -18.48          8.717          30.05          46.87          2.397          13.64         -124.1          47.63         -84.44          120.9          120.6
    0.3602              -18.49          8.714          30.06          46.87          2.397          13.63         -124.1           47.6         -84.36          120.9          120.5
    0.3827               -18.5          8.711          30.06          46.87          2.397          13.61         -124.0          47.57         -84.27          120.9          120.5
    0.4052              -18.51          8.707          30.06          46.87          2.397          13.59         -124.0          47.54         -84.17          120.9          120.4
    0.4277              -18.52          8.704          30.06          46.87          2.397          13.58         -123.9           47.5         -84.06          120.9          120.4
    0.4502              -18.54            8.7          30.07          46.87          2.397          13.56         -123.9          47.46         -83.95          120.9          120.3
    0.4727              -18.55          8.695          30.07          46.86          2.398          13.54         -123.8          47.42         -83.82          120.9          120.2
    0.4952              -18.57          8.691          30.08          46.86          2.398          13.51         -123.7          47.37         -83.68          120.9          120.1
    0.5177              -18.58          8.685          30.08          46.86          2.398          13.49         -123.7          47.32         -83.52          120.8          120.1
    0.5402               -18.6          8.679          30.08          46.86          2.398          13.46         -123.6          47.26         -83.35          120.8          120.0
    0.5627              -18.62          8.673          30.09          46.85          2.398          13.43         -123.5          47.19         -83.16          120.8          119.8
    0.5853              -18.65          8.665           30.1          46.85          2.399          13.39         -123.4          47.12         -82.94          120.8          119.7
    0.6078              -18.67          8.657           30.1          46.85          2.399          13.35         -123.3          47.04         -82.69          120.8          119.6
    0.6303               -18.7          8.647          30.11          46.84            2.4           13.3         -123.1          46.94         -82.42          120.7          119.4
    0.6528              -18.74          8.636          30.12          46.84            2.4          13.25         -123.0          46.84          -82.1          120.7          119.2
    0.6753              -18.78          8.624          30.13          46.84            2.4          13.19         -122.8          46.72         -81.75          120.7          119.0
    0.6978              -18.82           8.61          30.14          46.83          2.401          13.13         -122.6          46.58         -81.33          120.6          118.8
    0.7203              -18.87          8.594          30.16          46.82          2.402          13.05         -122.4          46.42         -80.86          120.6          118.5
    0.7428              -18.94          8.575          30.17          46.82          2.402          12.96         -122.1          46.23         -80.31          120.5          118.2
    0.7653              -19.01          8.553          30.19          46.81          2.403          12.85         -121.8          46.01         -79.66          120.5          117.8
    0.7878              -19.09          8.527          30.21           46.8          2.404          12.72         -121.4          45.75          -78.9          120.4          117.3
    0.8104              -19.19          8.496          30.24          46.78          2.406          12.57         -121.0          45.44          -78.0          120.3          116.8
    0.8329              -19.31          8.458          30.27          46.77          2.407           12.4         -120.4          45.08         -76.92          120.2          116.2
